<svg width="59" height="59" viewBox="0 0 59 59" fill="none" xmlns="http://www.w3.org/2000/svg">
<path d="M48.7827 27.072H53.5875C53.5875 14.7477 44.2831 5.45288 31.942 5.45288V10.2577C41.7005 10.2577 48.7827 17.3279 48.7827 27.072Z" fill="#75464A"/>
<path d="M31.9659 19.867C37.0182 19.867 39.1731 22.022 39.1731 27.0742H43.9779C43.9779 19.3265 39.7136 15.0623 31.9659 15.0623V19.867ZM40.1869 32.9432C39.7253 32.5237 39.1187 32.2999 38.4952 32.3192C37.8716 32.3384 37.28 32.5992 36.8452 33.0465L31.0963 38.9588C29.7125 38.6945 26.9305 37.8273 24.0669 34.9708C21.2033 32.1048 20.336 29.3156 20.0789 27.9415L25.9864 22.1901C26.4342 21.7556 26.6954 21.1639 26.7147 20.5402C26.734 19.9165 26.5098 19.3098 26.0897 18.8484L17.2129 9.08754C16.7926 8.62473 16.2084 8.34401 15.5844 8.30498C14.9605 8.26596 14.3459 8.4717 13.8712 8.87853L8.658 13.3494C8.24265 13.7662 7.99474 14.321 7.9613 14.9085C7.92527 15.5091 7.23818 29.736 18.2699 40.7726C27.8939 50.3942 39.9491 51.0981 43.2692 51.0981C43.7545 51.0981 44.0523 51.0836 44.1316 51.0788C44.719 51.046 45.2735 50.7969 45.6884 50.3797L50.1568 45.1642C50.5639 44.6898 50.7701 44.0753 50.7315 43.4514C50.6929 42.8274 50.4127 42.2431 49.9502 41.8224L40.1869 32.9432Z" fill="#75464A"/>
</svg>
