<svg width="59" height="59" viewBox="0 0 59 59" fill="none" xmlns="http://www.w3.org/2000/svg">
<path d="M34.969 44.0971H7.9422L7.9368 16.9009L28.5385 31.1639C28.8397 31.3723 29.1973 31.484 29.5637 31.484C29.93 31.484 30.2876 31.3723 30.5889 31.1639L51.1851 16.9081V33.2864H54.7887V15.2685C54.7873 14.3132 54.4072 13.3975 53.7317 12.722C53.0562 12.0465 52.1404 11.6663 51.1851 11.6649H7.9422C6.98677 11.6659 6.07074 12.0458 5.39514 12.7214C4.71954 13.397 4.33958 14.3131 4.33862 15.2685V44.0971C4.34005 45.0524 4.72017 45.9682 5.39567 46.6437C6.07116 47.3192 6.98691 47.6993 7.9422 47.7007H34.969V44.0971ZM47.2194 15.2685L29.5637 27.4918L11.9079 15.2685H47.2194Z" fill="#75464A"/>
<path d="M47.5816 51.3041C51.562 51.3041 54.7887 48.0773 54.7887 44.0969C54.7887 40.1165 51.562 36.8898 47.5816 36.8898C43.6012 36.8898 40.3744 40.1165 40.3744 44.0969C40.3744 48.0773 43.6012 51.3041 47.5816 51.3041Z" fill="#75464A"/>
</svg>
