<svg width="67" height="67" viewBox="0 0 67 67" fill="none" xmlns="http://www.w3.org/2000/svg">
<path d="M43.9077 33.3313C43.9077 36.0838 42.8143 38.7236 40.868 40.6699C38.9217 42.6162 36.2819 43.7096 33.5294 43.7096C30.7769 43.7096 28.1372 42.6162 26.1909 40.6699C24.2445 38.7236 23.1511 36.0838 23.1511 33.3313C23.1511 32.7397 23.2134 32.162 23.3206 31.6016H19.6917V45.429C19.6917 46.3907 20.4701 47.1691 21.4318 47.1691H45.6305C46.0914 47.1681 46.5331 46.9844 46.8587 46.6582C47.1843 46.3319 47.3672 45.8899 47.3672 45.429V31.6016H43.7382C43.8455 32.162 43.9077 32.7397 43.9077 33.3313ZM33.5294 40.2502C34.4383 40.25 35.3381 40.0707 36.1777 39.7227C37.0173 39.3747 37.7801 38.8648 38.4225 38.222C39.065 37.5792 39.5746 36.8161 39.9222 35.9764C40.2697 35.1366 40.4485 34.2367 40.4483 33.3279C40.4481 32.419 40.2688 31.5191 39.9208 30.6796C39.5728 29.84 39.0629 29.0772 38.4201 28.4348C37.7773 27.7923 37.0142 27.2827 36.1745 26.9351C35.3348 26.5875 34.4348 26.4088 33.526 26.409C31.6905 26.4094 29.9304 27.139 28.6329 28.4372C27.3353 29.7354 26.6066 31.4959 26.6071 33.3313C26.6076 35.1668 27.3371 36.9269 28.6353 38.2244C29.9335 39.5219 31.694 40.2506 33.5294 40.2502ZM41.8321 26.0665H45.9799C46.2555 26.0665 46.5198 25.9573 46.715 25.7627C46.9102 25.5682 47.0203 25.3042 47.0212 25.0287V20.8808C47.0212 20.6046 46.9115 20.3398 46.7162 20.1445C46.521 19.9492 46.2561 19.8395 45.9799 19.8395H41.8321C41.5559 19.8395 41.291 19.9492 41.0958 20.1445C40.9005 20.3398 40.7908 20.6046 40.7908 20.8808V25.0287C40.7942 25.5995 41.2613 26.0665 41.8321 26.0665ZM33.5294 0.120728C24.7214 0.120728 16.2742 3.61969 10.046 9.84788C3.81781 16.0761 0.318848 24.5233 0.318848 33.3313C0.318848 42.1393 3.81781 50.5865 10.046 56.8147C16.2742 63.0429 24.7214 66.5419 33.5294 66.5419C37.8907 66.5419 42.2093 65.6829 46.2386 64.0139C50.2679 62.3449 53.929 59.8986 57.0129 56.8147C60.0967 53.7309 62.543 50.0697 64.212 46.0405C65.881 42.0112 66.74 37.6926 66.74 33.3313C66.74 28.97 65.881 24.6515 64.212 20.6222C62.543 16.5929 60.0967 12.9318 57.0129 9.84788C53.929 6.76399 50.2679 4.31772 46.2386 2.64873C42.2093 0.979745 37.8907 0.120728 33.5294 0.120728ZM50.8266 46.7851C50.8266 48.8988 49.0969 50.6285 46.9832 50.6285H20.0757C17.962 50.6285 16.2323 48.8988 16.2323 46.7851V19.8776C16.2323 17.7638 17.962 16.0341 20.0757 16.0341H46.9832C49.0969 16.0341 50.8266 17.7638 50.8266 19.8776V46.7851Z" fill="#3F3232" fill-opacity="0.78"/>
</svg>
